<?xml version="1.0" encoding="UTF-8" standalone="no"?>
<!DOCTYPE svg PUBLIC "-//W3C//DTD SVG 1.1//EN" "http://www.w3.org/Graphics/SVG/1.1/DTD/svg11.dtd">
<svg width="216.00" height="224.00" viewBox="0.00 0.00 216.00 224.00" xmlns="http://www.w3.org/2000/svg" xmlns:xlink="http://www.w3.org/1999/xlink">
<g stroke-linecap="round" transform="translate(-39.00, -298.00)" id="mini-yuge01">
<path d="M164.89,416.99 C166.66,417.34 168.65,417.61 169.75,417.45 C171.55,417.15 173.88,415.92 175.19,414.53 C177.78,411.68 180.20,405.91 180.77,402.05 C181.28,398.16 180.71,391.45 179.22,387.39 C177.83,383.74 173.57,377.82 171.39,376.42 C169.16,375.06 163.28,374.58 160.42,375.58 C157.56,376.62 152.86,379.51 150.34,381.72 C149.17,382.79 147.46,384.98 146.67,386.52 C145.91,388.06 145.31,391.05 145.37,392.86 C145.48,394.76 146.37,397.57 147.40,399.26 C148.44,400.88 150.90,403.32 152.40,404.11 C154.10,404.96 157.02,405.56 158.76,405.45 C162.37,405.14 167.62,403.07 170.81,400.72 C172.33,399.56 174.50,397.05 175.56,395.18 C176.37,393.71 177.40,390.49 177.72,388.67 C178.01,386.92 177.46,385.41 176.01,383.22 C172.97,383.35 168.29,385.20 164.77,388.24 C161.96,390.72 158.41,396.28 157.95,398.69 C157.88,399.20 157.96,402.33 158.44,402.86 C159.75,404.23 162.40,405.08 164.10,404.62 C166.09,404.02 168.34,402.89 169.86,401.68 C171.45,400.38 173.44,397.85 174.23,396.12 C174.97,394.40 175.40,391.51 175.18,389.86 C174.91,388.27 173.73,386.08 172.67,385.23 C171.54,384.40 168.97,383.87 167.25,384.15 C164.13,384.73 157.92,388.56 156.25,390.01 C153.00,392.91 149.65,398.27 149.95,399.72 C150.44,401.72 152.05,403.89 153.41,404.26 C155.00,404.64 156.99,404.52 158.73,403.94 C161.73,402.87 166.70,398.99 167.97,396.68 C168.63,395.40 169.10,393.56 169.29,391.53 C169.40,389.77 168.30,387.11 167.02,386.07 C166.17,385.43 160.04,387.41 157.99,388.91 C155.89,390.50 153.36,395.17 153.55,396.84 C153.89,399.23 155.98,401.66 158.18,402.15 C159.86,402.47 166.29,399.39 168.56,397.07 C169.57,396.00 171.34,393.12 171.77,391.86 C172.16,390.63 172.34,387.70 172.09,386.58 C171.83,385.51 170.49,383.27 169.72,382.57 C168.90,381.90 166.55,381.00 165.41,380.95 C162.72,380.92 157.20,383.61 155.71,385.68 C155.10,386.56 154.46,388.87 154.48,389.95 C154.54,391.04 155.34,393.55 155.96,394.48 C157.50,396.65 162.82,399.29 165.80,399.43 C167.08,399.46 169.78,398.85 170.71,398.30 C171.67,397.68 173.31,395.48 173.73,394.19 C174.65,391.16 174.01,383.48 172.70,380.66 C172.14,379.53 170.55,377.97 169.68,377.72 C167.75,377.26 162.82,379.67 161.23,381.80 C159.78,383.83 158.93,389.77 159.79,392.12 C160.22,393.23 162.08,395.53 163.16,396.32 C164.27,397.10 167.33,398.33 168.62,398.49 C169.90,398.62 173.15,398.10 174.31,397.62 C175.45,397.11 177.37,395.39 177.81,394.45 C178.66,392.44 177.42,385.53 175.82,382.51 C175.07,381.14 172.78,378.50 171.71,377.78 C170.55,377.07 167.62,376.48 166.25,376.75 C163.42,377.36 158.04,381.35 155.55,384.10 C154.47,385.34 152.70,387.99 151.89,389.68 C151.03,391.54 150.26,395.09 150.23,397.27 C150.25,399.50 151.03,402.81 151.96,404.64 C152.88,406.34 154.82,408.47 156.18,409.30 C157.46,410.02 159.80,410.60 161.18,410.56 C163.55,410.42 167.64,407.95 169.33,406.21 C170.16,405.34 170.71,404.17 171.39,402.08 C170.40,400.51 169.55,399.88 168.16,399.96 C164.98,400.20 161.01,401.99 157.91,404.46 C155.74,406.23 154.30,407.48 152.57,409.13 C151.19,410.47 149.55,413.24 149.01,415.18 C148.66,416.53 149.25,419.41 149.92,420.14 C150.84,421.03 153.32,420.82 154.84,419.79 C157.73,417.68 158.35,415.04 158.05,413.05 C158.05,413.05 156.25,413.64 156.25,413.64 C156.46,415.25 157.41,417.37 158.60,417.58 C159.69,417.77 162.80,416.46 163.75,415.64 C164.88,414.58 165.96,412.92 166.41,411.49 C167.19,408.80 166.33,403.11 164.86,400.92 C164.11,399.92 161.69,398.55 160.56,398.91 C159.40,399.31 157.14,402.12 156.60,403.36 C155.66,405.80 155.76,409.73 156.76,411.82 C157.34,412.95 158.64,414.49 159.57,415.09 C160.60,415.71 162.68,416.14 164.22,416.03 C165.75,415.89 168.40,415.09 169.76,414.33 C171.20,413.50 172.90,411.75 173.57,410.41 C174.13,409.23 174.64,406.84 174.74,405.19 C174.82,403.54 174.11,402.11 172.45,400.05 C169.73,400.54 165.84,402.86 163.42,406.13 C161.58,408.69 159.10,415.03 159.14,416.97 C159.19,417.94 159.98,420.05 160.56,420.76 C161.20,421.48 163.17,422.44 164.16,422.41 C166.16,422.28 172.72,418.20 173.77,416.03 C174.29,414.92 174.80,412.08 175.02,410.17 C173.88,411.47 171.47,414.15 171.10,414.77 C170.21,416.24 170.44,417.82 171.36,418.98 C173.88,418.34 177.95,416.41 180.03,413.44 C180.74,412.41 182.66,408.29 183.17,407.14 C184.07,405.10 184.08,404.15 183.44,403.06 C181.75,403.72 179.34,404.85 178.52,405.55 C177.78,406.19 174.26,413.30 173.19,414.01 C172.87,414.22 172.13,414.50 170.96,414.85" fill="none" stroke="rgb(255, 255, 255)" stroke-width="17.00" stroke-opacity="1.00" stroke-linejoin="round"/>
<path d="M112.95,441.07 C113.62,442.17 114.90,444.45 115.31,444.77 C116.39,445.57 118.18,445.43 119.28,444.54 C119.84,444.05 122.02,442.04 122.43,441.27 C123.60,438.98 123.74,429.56 123.09,427.68 C122.47,425.96 120.88,423.85 119.71,422.86 C118.53,423.20 116.70,423.93 115.86,424.61 C113.66,426.42 110.63,433.11 110.33,436.77 C110.08,440.69 111.81,447.31 113.70,449.30 C114.55,450.12 116.95,451.10 118.11,451.11 C119.26,451.07 122.25,450.05 123.47,449.26 C126.30,447.37 130.55,441.36 131.60,437.78 C132.57,434.30 132.24,427.41 130.93,425.38 C130.28,424.46 128.07,423.16 126.91,423.02 C124.39,422.81 118.08,425.51 115.28,427.84 C112.76,429.99 108.90,435.60 108.34,438.13 C108.09,439.39 108.28,442.49 108.69,443.67 C109.15,444.87 111.00,447.30 112.00,447.97 C113.03,448.61 116.07,449.28 117.46,449.20 C118.82,449.08 122.25,447.98 123.57,447.26 C124.90,446.49 127.49,444.14 128.33,442.92 C129.15,441.66 130.47,438.08 130.70,436.51 C130.90,434.99 130.60,431.35 130.19,430.14 C129.76,428.97 128.13,427.16 127.23,426.84 C125.34,426.27 119.97,428.59 118.17,430.79 C117.31,431.90 115.83,435.17 115.50,436.74 C115.20,438.35 115.22,442.57 115.54,444.12 C115.91,445.73 117.56,448.53 118.59,449.20 C119.72,449.88 122.88,450.01 124.66,449.59 C126.45,449.12 131.96,445.66 134.30,442.55 C136.11,440.10 138.97,432.65 138.32,430.63 C138.17,430.18 137.68,429.61 136.84,428.91 C134.24,429.72 130.62,432.52 128.61,436.00 C127.23,438.48 125.63,444.91 125.85,446.87 C125.99,447.90 126.99,450.34 127.59,451.14 C128.24,451.96 130.18,453.18 131.09,453.28 C133.16,453.42 138.70,449.82 140.86,447.00 C142.94,444.19 144.77,437.50 144.30,434.83 C144.11,433.86 143.33,432.15 142.75,431.11 C140.13,430.94 138.53,431.19 137.26,432.21 C134.93,434.12 131.78,439.84 131.20,443.01 C130.92,444.64 130.95,446.55 131.28,448.37 C131.58,449.82 133.50,451.68 135.27,452.27 C136.58,452.66 141.11,449.85 145.20,446.64 C145.20,446.64 142.21,451.82 142.21,451.82 C145.94,448.55 149.08,445.21 149.99,442.11 C150.95,438.58 150.70,436.42 150.21,435.29 C147.12,438.13 144.87,441.89 144.28,444.85 C144.02,446.22 143.86,446.96 143.81,447.07 C143.71,447.27 143.47,447.42 143.09,447.52" fill="none" stroke="rgb(255, 255, 255)" stroke-width="17.00" stroke-opacity="1.00" stroke-linejoin="round"/>
<path d="M121.80,373.93 C122.18,372.75 122.42,371.93 122.51,371.47 C122.83,369.76 122.47,366.43 121.74,364.65 C120.96,362.91 118.89,361.27 117.66,361.70 C116.40,362.19 114.29,364.18 113.38,365.52 C112.46,367.08 111.40,369.33 111.55,370.44 C111.64,371.05 112.15,372.25 113.09,374.03 C113.98,373.41 116.41,371.69 116.69,371.08 C116.87,370.69 117.00,369.81 117.06,368.44" fill="none" stroke="rgb(255, 255, 255)" stroke-width="17.00" stroke-opacity="1.00" stroke-linejoin="round"/>
<path d="M201.06,427.49 C200.15,427.97 197.13,429.59 196.49,430.01 C195.19,430.88 193.15,433.07 192.42,434.36 C191.85,435.47 190.92,438.63 190.99,439.75 C191.12,441.50 192.07,444.38 192.92,446.16 C195.12,446.04 196.40,445.66 197.45,444.60 C199.50,442.50 201.17,438.81 202.02,434.96 C202.50,432.64 202.97,429.50 202.78,428.46 C202.50,426.90 201.31,424.94 200.34,423.99 C196.08,426.78 192.49,429.62 191.06,432.51 C190.52,433.68 189.63,437.14 189.70,438.23 C189.85,439.95 190.77,442.61 191.60,444.18 C193.59,443.82 196.63,442.74 198.22,441.63 C199.66,440.61 202.84,435.50 203.43,434.54 C201.16,438.40 198.93,442.57 198.70,445.76 C198.68,446.23 198.71,446.92 198.80,447.84 C202.25,443.66 205.74,439.17 206.76,435.96 C206.90,435.49 207.04,434.80 207.15,433.89 C207.15,433.89 206.22,441.30 206.22,441.30 C208.15,442.06 209.46,442.39 210.20,441.97 C211.99,440.92 215.75,435.33 217.50,432.34 C219.20,429.38 219.55,426.41 219.37,425.55 C216.47,428.28 213.02,433.86 211.01,437.10 C209.85,438.99 208.77,441.78 208.89,443.08 C208.94,443.57 209.28,444.21 209.92,445.03 C212.34,444.24 213.77,443.40 214.93,441.84 C217.08,438.89 219.12,434.04 219.18,430.82 C219.19,430.44 219.17,429.73 219.14,428.68 C219.14,428.68 215.51,433.96 215.51,433.96 C215.51,433.96 217.08,430.14 217.08,430.14 C217.08,430.14 211.01,445.83 211.01,445.83 C211.01,445.83 208.76,442.40 208.76,442.40 C206.07,442.53 204.04,443.28 202.52,445.12 C201.03,446.95 199.54,449.84 199.21,451.54 C198.96,453.02 198.78,456.34 199.02,457.22 C199.43,458.60 200.67,460.33 201.63,461.17 C204.15,460.29 205.59,459.53 206.59,458.39 C208.17,456.58 210.63,450.86 209.82,448.81 C209.64,448.36 209.03,447.87 207.99,447.32 C205.41,448.47 204.18,449.33 203.15,450.91 C200.38,455.26 200.29,456.21 200.76,457.90 C200.76,457.90 211.11,451.04 211.11,451.04 C210.30,452.57 209.71,453.83 208.92,455.85 C208.13,457.88 208.11,458.81 208.70,459.49 C210.61,458.30 211.90,457.33 212.56,456.43 C213.86,454.59 213.84,451.32 213.72,449.86" fill="none" stroke="rgb(255, 255, 255)" stroke-width="17.00" stroke-opacity="1.00" stroke-linejoin="round"/>
<path d="M168.55,387.12 C169.26,386.14 170.26,384.82 171.04,383.87 C172.25,382.43 173.51,381.21 175.37,379.71 C176.85,378.56 179.30,377.97 181.25,378.27 C183.03,378.58 185.93,381.40 187.23,384.09 C187.72,385.22 187.67,386.69 187.04,387.94 C184.08,393.49 172.92,401.15 172.80,401.31 C175.13,401.56 177.68,401.16 179.29,399.98 C181.37,398.43 185.26,391.86 186.01,388.07 C186.36,386.06 186.51,382.42 186.17,381.21 C185.84,380.12 184.49,378.28 183.50,377.20 C183.50,377.20 174.15,379.50 174.15,379.50 C175.72,378.92 181.27,378.29 183.69,379.04 C184.98,379.46 187.04,380.68 187.79,381.49 C188.58,382.41 189.59,385.10 189.52,386.54 C189.39,388.32 188.32,391.39 187.40,392.85 C183.11,399.39 178.16,403.00 174.44,405.26 C174.33,403.07 174.74,401.76 176.35,399.98 C180.10,395.83 183.25,391.62 184.11,389.14 C184.61,387.61 185.06,385.26 184.98,384.22 C184.78,382.27 181.24,379.42 176.84,376.85 C176.18,376.47 175.52,376.09 174.86,375.71 C178.63,376.78 185.64,379.27 186.75,380.15 C187.99,381.16 189.16,383.37 189.51,385.04 C190.15,388.58 189.96,391.99 189.07,394.98 C187.82,398.94 184.67,404.12 181.90,405.77 C180.90,406.34 177.41,407.47 176.56,407.46 C175.17,407.36 173.26,405.93 173.09,404.61 C172.96,403.42 173.23,402.21 173.15,401.02 C173.12,400.40 172.94,399.40 172.59,398.03" fill="none" stroke="rgb(255, 255, 255)" stroke-width="20.00" stroke-opacity="1.00" stroke-linejoin="round"/>
<path d="M165.28,392.99 C165.54,392.06 167.93,385.75 167.92,383.64 C167.88,382.24 166.98,379.89 166.04,378.58 C164.26,376.23 158.01,371.73 155.83,370.83 C154.29,370.22 151.75,369.87 150.53,370.11 C149.49,370.36 147.13,371.46 146.29,372.12 C144.34,373.73 142.72,378.92 142.63,382.80 C142.61,386.02 144.28,391.03 146.00,393.77 C147.15,395.57 150.46,399.71 151.11,400.53 C148.53,398.53 145.82,395.51 145.52,393.06 C145.39,391.70 145.94,388.19 146.55,386.65 C147.19,385.11 149.47,381.69 150.56,380.63 C151.39,379.88 154.57,378.02 155.38,378.04 C156.09,378.08 157.14,378.41 158.53,379.05 C159.01,379.27 159.98,379.78 161.46,380.57" fill="none" stroke="rgb(255, 255, 255)" stroke-width="20.00" stroke-opacity="1.00" stroke-linejoin="round"/>
<path d="M155.56,417.17 C155.24,416.37 154.47,414.65 153.85,413.40 C152.64,410.99 149.28,405.29 146.83,403.18 C145.73,402.28 142.94,401.24 141.69,401.24 C140.90,401.29 138.99,403.14 138.77,404.03 C138.52,405.26 139.36,409.53 140.15,411.08 C140.92,412.50 143.60,415.18 145.23,416.29 C146.76,417.29 150.34,419.00 151.82,419.43 C153.30,419.83 156.25,419.89 157.34,419.53 C160.47,418.37 161.08,416.21 160.85,414.48 C159.01,413.83 151.12,408.62 150.82,408.42 C147.75,406.41 144.58,406.65 143.56,407.10 C142.51,408.67 142.18,410.38 142.76,412.70 C143.39,415.11 144.76,417.30 146.52,418.68 C148.13,419.86 150.94,419.85 152.36,418.62 C152.88,418.15 154.15,415.17 154.83,413.73" fill="none" stroke="rgb(255, 255, 255)" stroke-width="20.00" stroke-opacity="1.00" stroke-linejoin="round"/>
<path d="M126.32,435.87 C126.51,434.53 126.66,433.84 127.26,431.76 C128.12,428.69 128.41,423.18 127.71,420.57 C126.98,418.02 124.18,414.70 121.80,412.82 C120.67,412.00 118.01,411.64 116.82,412.41 C115.79,413.12 114.99,415.71 114.90,417.56 C114.86,419.13 114.86,422.44 115.18,423.60 C115.76,425.54 117.72,428.79 119.26,430.33 C120.66,431.68 123.93,433.79 125.66,434.44 C127.08,434.94 132.16,435.95 133.11,435.71 C133.64,435.56 134.57,435.03 135.90,434.10" fill="none" stroke="rgb(255, 255, 255)" stroke-width="20.00" stroke-opacity="1.00" stroke-linejoin="round"/>
<path d="M141.80,425.56 C141.05,423.61 140.13,421.58 139.24,420.16 C138.00,418.24 135.82,416.29 134.03,415.61 C132.29,415.00 128.92,414.97 126.85,415.51 C124.86,416.08 121.80,417.80 120.63,419.06 C119.50,420.34 118.20,422.87 117.82,424.40 C117.10,427.71 117.86,432.26 119.67,435.50 C120.52,436.94 122.58,439.30 123.86,440.17 C125.34,441.11 128.38,441.26 130.32,440.52 C132.25,439.72 134.74,437.45 135.86,435.51 C136.79,433.82 137.69,430.90 138.06,428.69 C138.32,426.80 137.91,424.64 137.03,423.67 C136.08,422.72 133.15,422.39 131.41,423.05 C129.66,423.78 127.03,426.37 126.24,428.07 C125.60,429.55 125.51,432.41 126.08,433.38 C126.63,434.23 128.57,435.62 129.34,435.63 C131.49,435.58 139.12,432.09 140.38,430.98 C141.53,429.95 142.52,428.21 142.79,427.16 C139.74,423.65 135.90,420.78 131.65,419.06 C129.87,418.40 127.13,417.63 126.14,417.81 C125.20,418.01 122.86,420.01 122.53,420.65 C121.68,422.61 121.26,431.41 121.74,434.57 C122.25,437.79 125.22,444.81 127.03,446.50 C127.71,447.10 131.03,448.06 132.34,448.13 C133.40,448.16 138.54,445.66 140.34,443.54 C141.65,441.96 145.29,435.12 145.23,432.23 C145.15,429.68 142.38,422.07 141.24,419.07 C138.95,418.67 137.23,418.83 136.13,420.08 C133.83,422.74 131.07,430.05 129.82,434.05 C128.68,437.76 128.65,441.63 128.52,442.21 C128.46,442.48 128.23,443.03 127.82,443.86" fill="none" stroke="rgb(255, 255, 255)" stroke-width="20.00" stroke-opacity="1.00" stroke-linejoin="round"/>
<path d="M121.51,437.51 C120.10,436.61 119.66,436.19 118.24,434.47 C117.16,433.21 114.84,431.47 113.03,430.69 C111.03,429.85 108.27,429.64 106.22,430.11 C104.65,430.51 101.84,432.07 100.75,433.18 C99.58,434.45 98.40,437.62 98.44,439.30 C98.51,440.45 99.90,444.91 100.53,446.03 C101.39,447.47 104.23,449.72 105.80,450.17 C107.43,450.58 111.67,450.24 113.06,449.56 C114.36,448.86 116.34,446.11 116.66,444.70 C116.94,443.24 116.14,440.36 115.15,438.84 C114.17,437.43 107.85,432.41 104.67,431.05 C102.66,430.23 99.50,430.09 97.94,430.77 C96.36,431.52 95.03,433.72 94.80,435.77 C94.54,438.76 95.87,443.41 97.10,445.37 C98.37,447.31 102.38,450.07 104.68,450.72 C106.89,451.30 110.27,450.69 110.96,450.27 C111.32,450.05 112.10,449.45 113.31,448.48" fill="none" stroke="rgb(255, 255, 255)" stroke-width="20.00" stroke-opacity="1.00" stroke-linejoin="round"/>
<path d="M118.24,437.60 C117.77,436.42 116.87,434.00 116.50,433.44 C115.50,431.99 113.34,430.93 111.71,431.21 C110.06,431.55 107.01,433.40 105.96,434.80 C104.17,437.28 103.40,443.98 103.46,444.48 C103.72,446.56 107.43,453.58 108.63,454.31 C109.82,455.03 111.98,455.14 113.35,454.82" fill="none" stroke="rgb(255, 255, 255)" stroke-width="20.00" stroke-opacity="1.00" stroke-linejoin="round"/>
<path d="M119.78,440.88 C118.50,441.35 115.98,442.26 115.27,442.63 C113.18,443.76 110.96,446.04 109.98,448.03 C109.19,449.70 108.85,454.72 109.46,456.38 C110.26,458.42 112.37,461.28 114.03,462.37 C115.53,463.32 117.76,463.59 119.24,463.06 C120.98,462.36 122.84,460.71 123.79,458.95 C124.63,457.29 125.29,454.09 125.11,452.49 C124.74,449.72 121.96,447.27 120.74,446.38 C118.97,447.19 116.41,448.57 115.44,449.43 C114.31,450.46 112.96,453.43 112.87,455.02 C112.83,456.69 113.90,460.38 114.80,461.43 C115.57,462.32 117.71,463.35 119.17,463.86 C121.08,462.94 123.85,461.03 125.18,459.49 C126.03,458.48 127.37,455.02 127.87,453.14 C128.70,449.69 127.55,445.29 126.85,443.70 C124.95,443.02 123.84,443.02 122.29,443.94 C118.74,446.07 115.58,449.44 114.15,452.68 C113.55,454.13 112.76,457.33 112.72,458.74 C112.72,460.48 113.96,462.28 115.51,463.09 C115.85,463.26 116.51,463.52 117.50,463.89 C121.22,462.02 124.14,459.89 126.80,456.62 C128.43,454.58 134.31,446.31 134.53,446.13 C135.17,445.61 135.79,445.44 136.39,445.61 C137.17,445.84 137.73,446.58 138.51,446.77 C139.84,447.09 146.26,442.39 146.51,442.27 C147.42,441.89 149.55,442.61 150.27,443.63 C151.01,444.75 151.19,447.14 150.68,448.70 C149.99,450.57 148.34,452.71 146.46,454.15 C143.38,456.41 139.38,457.27 136.85,456.82 C135.64,456.54 133.47,454.93 132.34,453.37 C131.32,451.89 130.91,448.65 131.47,446.84 C132.13,444.95 134.40,442.11 136.01,441.17 C137.55,440.34 140.70,440.16 142.66,440.72 C143.23,440.90 144.33,441.32 145.97,442.01" fill="none" stroke="rgb(255, 255, 255)" stroke-width="20.00" stroke-opacity="1.00" stroke-linejoin="round"/>
<path d="M147.00,451.77 C145.82,452.58 143.51,454.21 142.88,454.51 C141.21,455.26 138.25,455.19 136.87,454.18 C135.40,453.03 134.08,450.42 133.51,447.82 C132.94,444.87 132.72,443.02 132.93,442.21 C133.15,441.48 135.22,438.86 136.32,437.93 C138.08,436.50 140.99,435.11 142.84,434.81 C146.46,434.27 149.85,434.35 152.78,435.03 C153.29,435.15 154.53,435.40 156.52,435.78" fill="none" stroke="rgb(255, 255, 255)" stroke-width="20.00" stroke-opacity="1.00" stroke-linejoin="round"/>
<path d="M161.04,444.73 C160.09,447.31 157.56,451.58 154.55,454.31 C153.65,455.11 151.01,456.88 149.77,457.60 C148.34,458.40 145.92,459.18 144.20,459.41 C143.75,459.47 143.05,459.51 142.10,459.52" fill="none" stroke="rgb(255, 255, 255)" stroke-width="20.00" stroke-opacity="1.00" stroke-linejoin="round"/>
<path d="M111.12,372.29 C109.45,372.88 107.07,373.79 106.12,374.29 C105.02,374.88 103.41,376.45 102.91,377.43 C102.59,378.10 101.62,381.49 101.75,382.28 C101.99,383.65 103.13,385.76 104.21,387.05 C105.35,388.28 107.54,389.85 109.08,390.31 C110.92,390.81 114.59,389.79 116.08,388.49 C116.77,387.86 118.86,384.20 119.13,383.51 C119.53,382.42 119.58,380.33 119.23,379.47 C119.00,378.96 117.24,376.52 116.69,376.29 C115.84,375.96 113.13,376.00 111.86,376.27 C110.24,376.69 108.38,377.69 107.41,378.79 C106.42,379.98 105.71,382.51 105.97,384.06 C106.53,386.88 110.38,389.49 112.10,390.47 C114.19,389.98 117.13,388.75 118.36,387.62 C119.16,386.87 119.95,384.05 120.15,382.38 C120.27,380.71 119.66,377.37 118.84,375.50 C118.00,373.68 115.94,371.51 114.53,370.78 C113.26,370.16 112.09,370.32 110.81,371.02 C110.22,373.30 109.95,376.28 110.59,377.39 C111.18,378.38 113.75,379.10 115.75,379.14 C118.09,379.12 119.89,378.86 121.54,378.29 C122.88,377.77 124.66,375.92 124.63,374.77 C124.61,374.33 124.23,373.54 123.51,372.41 C121.91,373.50 119.76,375.30 119.36,376.29 C118.96,377.29 119.41,379.65 119.94,381.18 C119.94,381.18 122.77,382.05 122.77,382.05 C123.96,380.58 125.58,378.27 126.01,377.07 C126.49,375.69 126.26,372.40 125.66,371.25 C125.14,370.30 123.58,368.89 122.44,368.08 C120.92,368.43 118.71,369.11 117.91,369.63 C117.04,370.22 115.96,372.29 115.86,373.38 C115.80,374.46 116.53,376.74 117.21,377.49 C118.00,378.32 120.33,378.90 121.93,378.72 C122.87,378.60 126.04,377.42 127.35,376.81 C128.87,376.05 130.94,374.21 131.80,372.79 C132.36,371.81 133.34,368.51 133.74,366.72 C134.15,364.73 133.89,363.62 132.99,362.57 C132.41,363.42 130.81,365.76 130.80,366.46 C130.79,366.91 131.04,367.87 131.54,369.34 C133.01,368.47 133.49,367.61 133.34,365.64 C133.15,363.69 131.59,361.68 129.77,361.15 C129.19,361.00 125.73,362.21 125.34,362.51 C123.75,363.78 123.02,366.00 123.15,368.33 C125.37,369.02 126.56,369.00 127.95,368.00 C132.96,364.34 136.49,357.86 136.97,356.98 C135.90,356.24 133.98,355.63 132.70,355.88 C131.86,356.05 129.33,357.98 128.09,359.15 C126.85,360.39 125.13,363.18 124.61,364.92 C124.13,366.62 124.41,369.34 125.09,371.04 C125.69,372.37 127.30,374.08 128.39,374.32 C129.92,374.61 132.99,373.27 134.59,371.76 C135.63,370.74 137.99,365.14 138.19,363.45 C138.39,361.43 137.96,358.36 137.20,357.56 C136.27,356.67 133.60,357.27 131.99,358.69 C131.11,359.50 128.58,363.63 128.20,364.71 C127.84,365.84 127.90,369.02 128.39,369.63 C129.13,370.50 131.18,371.28 132.34,371.38 C127.93,371.83 123.75,371.63 121.16,370.37 C119.62,369.55 118.48,365.27 117.56,359.96 C117.34,358.79 116.56,354.39 116.21,353.97 C115.93,353.64 115.13,353.10 113.80,352.35 C112.59,352.98 110.77,354.35 109.91,355.46 C108.85,356.86 107.41,363.19 107.47,366.21 C107.53,367.75 108.05,370.73 108.63,371.57 C109.52,372.84 111.73,374.47 113.32,375.26 C115.27,374.65 117.99,373.26 119.10,372.06 C120.35,370.66 120.57,363.65 119.67,361.04 C119.23,359.86 117.73,357.26 116.92,356.65 C115.74,355.82 111.98,354.48 110.68,354.61 C108.77,354.88 106.06,356.82 104.96,358.72 C103.92,360.65 103.39,363.69 103.69,366.06 C104.10,368.83 105.48,371.46 107.30,372.93 C109.91,374.93 113.84,375.86 116.51,375.58 C117.80,375.38 120.49,374.20 121.61,373.12 C122.70,372.01 124.22,367.82 123.92,366.46 C123.56,364.99 121.50,362.51 120.18,361.61 C117.56,359.93 113.25,358.52 111.02,358.67 C108.77,358.87 105.10,361.05 103.66,362.98 C102.99,363.95 101.93,366.66 101.81,368.08 C101.71,369.63 102.41,372.39 103.03,373.43 C104.34,375.44 107.39,377.30 109.68,377.45 C110.50,377.50 111.18,377.43 111.73,377.26 C112.17,377.11 113.20,376.67 114.81,375.94" fill="none" stroke="rgb(255, 255, 255)" stroke-width="20.00" stroke-opacity="1.00" stroke-linejoin="round"/>
<path d="M122.76,364.19 C121.67,362.58 119.84,360.21 118.78,359.34 C117.86,358.61 113.71,356.63 112.71,356.68 C111.14,356.81 108.38,358.22 107.35,359.25 C105.46,361.28 103.84,365.11 103.69,368.07 C103.56,371.79 104.53,375.53 106.64,378.22 C107.99,379.84 110.22,382.01 111.36,382.41 C113.08,383.00 116.31,383.00 118.39,382.65" fill="none" stroke="rgb(255, 255, 255)" stroke-width="20.00" stroke-opacity="1.00" stroke-linejoin="round"/>
<path d="M109.68,365.45 C108.19,364.70 107.22,364.23 106.79,364.04 C105.54,363.49 98.29,361.41 94.87,361.39 C93.03,361.40 90.04,362.02 87.67,362.82 C85.62,363.57 83.38,365.29 82.56,366.88 C81.77,368.52 82.28,371.24 83.53,373.67 C84.43,375.29 88.20,377.21 92.88,378.68 C94.50,379.17 97.43,379.88 98.32,379.93 C99.79,379.97 105.31,377.79 106.70,377.22" fill="none" stroke="rgb(255, 255, 255)" stroke-width="20.00" stroke-opacity="1.00" stroke-linejoin="round"/>
<path d="M110.73,363.33 C106.75,358.25 102.88,354.11 99.55,353.08 C98.00,352.65 94.62,352.71 93.30,353.16 C91.14,353.97 86.85,359.15 86.57,361.09 C86.42,362.35 87.93,367.98 89.42,370.37 C90.22,371.58 92.47,374.01 93.65,374.61 C95.11,375.33 98.01,375.39 99.27,374.93 C100.73,374.31 101.83,373.57 102.84,372.51 C103.67,371.58 104.65,368.86 104.64,367.23 C104.61,365.53 103.47,363.88 102.33,363.19 C100.64,364.06 98.35,365.84 97.44,367.27 C96.85,368.21 96.59,370.37 96.47,373.06 C96.42,374.90 96.88,375.98 98.18,377.59 C100.53,376.89 101.90,376.20 102.77,375.08 C103.66,373.90 104.40,372.29 104.75,370.75 C105.02,369.45 104.77,366.16 104.22,364.97 C103.62,363.78 100.90,363.48 99.50,364.35 C98.31,365.16 95.76,368.78 95.80,369.98 C95.83,370.56 96.19,371.77 96.86,373.61 C98.08,372.19 99.64,369.88 99.79,368.69 C99.94,367.50 99.02,364.82 98.21,363.09 C98.21,363.09 97.83,367.59 97.83,367.59 C101.61,369.57 105.23,370.96 109.40,370.93 C110.43,370.92 114.92,370.59 116.28,370.49" fill="none" stroke="rgb(255, 255, 255)" stroke-width="20.00" stroke-opacity="1.00" stroke-linejoin="round"/>
<path d="M195.77,444.44 C195.03,443.71 194.50,443.24 194.17,443.04 C192.89,442.32 190.35,442.58 188.61,443.63 C187.26,444.51 184.62,447.57 183.92,449.04 C183.21,450.63 183.73,457.65 184.85,459.64 C185.71,461.09 190.05,464.82 192.13,465.32 C194.23,465.77 198.74,464.78 200.51,463.54 C202.35,462.19 204.30,457.97 204.46,454.85 C204.58,451.85 203.49,446.08 202.40,443.41 C201.87,442.21 200.05,439.53 198.96,438.78 C197.47,437.79 194.63,437.40 193.35,437.80 C191.50,438.48 190.34,439.03 189.79,439.57 C188.30,441.09 185.21,448.92 184.98,451.50 C184.87,453.06 185.32,455.65 185.93,457.32 C186.52,458.81 187.98,460.75 189.63,462.28 C191.18,463.65 193.70,463.97 195.49,463.15 C196.76,462.50 199.49,457.78 200.50,454.31 C201.33,451.30 200.95,446.93 199.72,442.26 C199.21,440.37 198.13,438.64 196.94,438.46 C195.53,438.29 192.55,439.43 191.47,440.41 C189.51,442.28 187.49,446.49 186.99,449.01 C186.54,451.43 187.03,456.37 187.98,458.48 C189.02,460.66 192.55,463.08 194.77,463.38 C197.03,463.62 201.89,461.95 204.03,460.09 C206.18,458.16 209.04,452.79 209.74,449.61 C210.08,447.98 210.28,445.43 210.21,443.74 C210.13,442.12 209.31,440.60 207.44,438.23 C204.82,438.55 203.43,439.12 202.55,440.49 C201.01,442.90 199.66,447.31 199.63,450.05 C199.63,452.71 200.91,457.61 202.12,459.34 C203.42,461.10 207.30,463.44 209.52,463.51 C210.82,463.52 212.68,462.94 213.73,462.18 C215.60,460.75 217.38,456.38 217.03,453.56 C216.82,452.03 216.14,450.09 215.23,448.33 C214.42,446.91 212.22,445.22 210.59,444.99 C209.01,444.82 205.58,446.60 204.23,448.13 C203.04,449.56 202.44,452.49 202.66,454.77 C202.70,455.13 203.63,458.32 203.94,458.75 C204.95,460.07 207.02,461.52 208.29,461.82 C210.87,462.34 215.36,461.52 217.44,459.93 C218.92,458.76 222.79,453.98 222.77,451.85 C222.76,451.37 222.50,450.59 221.97,449.52 C220.41,448.82 219.36,448.94 217.97,450.24 C216.61,451.54 216.10,453.15 216.76,454.09 C216.93,454.31 217.34,454.54 217.98,454.77 C218.95,453.66 219.26,452.90 219.27,451.09 C219.23,448.83 218.22,447.19 216.22,446.32 C213.62,445.26 196.09,445.49 194.75,445.45 C191.94,445.29 189.77,444.65 189.19,443.50 C188.72,442.52 188.24,439.89 188.01,437.89" fill="none" stroke="rgb(255, 255, 255)" stroke-width="20.00" stroke-opacity="1.00" stroke-linejoin="round"/>
<path d="M188.26,428.84 C186.42,427.17 183.52,425.04 182.19,424.87 C180.91,424.72 177.19,426.71 176.14,427.81 C175.00,429.13 174.30,432.33 174.76,434.22 C175.28,436.10 176.89,437.95 178.89,439.23 C180.91,440.39 182.83,440.75 183.70,439.78 C184.43,438.90 185.26,435.68 185.15,434.55 C184.93,432.97 184.24,431.00 182.92,428.26 C181.69,425.80 180.13,423.99 178.97,424.12 C177.79,424.31 175.59,425.95 174.94,426.96 C173.75,428.99 173.03,433.44 173.38,436.50 C173.79,439.75 176.17,445.38 178.35,447.79 C179.53,449.05 181.07,450.24 182.82,451.25 C184.18,451.98 186.73,451.62 188.58,450.49 C190.11,449.50 192.22,444.23 192.28,441.17 C192.28,438.64 190.82,433.97 189.38,432.31 C188.64,431.48 186.36,429.86 185.43,429.53 C184.45,429.20 182.24,429.36 181.45,429.82 C179.90,430.80 177.37,436.15 177.01,438.81 C176.69,441.52 177.83,446.51 178.84,447.87 C179.99,449.32 181.93,449.63 184.21,448.75 C186.10,447.95 189.29,443.02 190.73,438.91 C191.89,435.46 190.17,431.41 189.16,430.01 C188.02,430.52 184.86,431.93 184.05,432.37 C182.42,433.29 180.78,435.74 180.25,438.01 C179.90,439.79 180.57,443.23 181.54,444.25 C182.68,445.36 185.20,446.14 186.37,445.84 C187.75,445.40 189.42,444.29 190.49,443.07 C192.43,440.75 193.77,434.62 193.37,432.62 C192.92,430.68 189.82,428.53 188.39,427.65 C188.39,427.65 184.36,430.24 184.36,430.24" fill="none" stroke="rgb(255, 255, 255)" stroke-width="20.00" stroke-opacity="1.00" stroke-linejoin="round"/>
<path d="M207.70,416.60 C207.70,416.60 213.49,417.42 213.49,417.42 C213.98,420.92 213.45,424.66 211.85,425.74 C210.89,426.36 209.82,426.79 208.81,427.34 C208.33,427.60 207.67,428.01 206.82,428.57" fill="none" stroke="rgb(255, 255, 255)" stroke-width="20.00" stroke-opacity="1.00" stroke-linejoin="round"/>
<path d="M164.70,461.59 C164.70,461.59 168.62,465.93 168.62,465.93 C169.57,465.21 170.15,463.48 169.62,461.92 C169.16,460.64 167.24,459.02 165.78,458.60 C164.01,458.15 161.55,458.45 159.89,459.38 C158.32,460.32 156.25,462.82 155.84,464.37 C155.46,466.12 156.48,469.10 158.02,470.78 C159.57,472.37 162.51,473.63 164.15,473.40 C165.72,473.11 167.88,471.36 169.21,469.49 C170.38,467.72 170.95,465.27 170.29,464.28 C170.07,463.96 169.46,463.51 168.46,462.92 C166.20,463.64 164.01,465.01 163.26,466.51 C162.95,467.14 162.68,471.02 162.90,471.46 C163.07,471.78 163.61,472.26 164.51,472.89 C166.67,472.35 168.89,470.88 170.01,468.94 C171.45,466.39 171.02,463.84 170.39,463.31 C168.85,464.40 166.68,466.22 166.15,467.22 C165.68,468.12 165.53,471.67 165.80,472.56 C166.28,473.94 167.61,474.47 169.55,474.20 C171.32,473.98 173.01,474.34 173.22,475.48 C173.42,476.68 173.06,477.96 173.41,479.13 C173.54,479.60 174.01,480.05 174.79,480.49 C174.79,480.49 181.22,476.06 181.22,476.06 C180.32,481.07 180.08,486.98 180.84,489.49 C181.05,490.15 181.34,490.79 181.72,491.41 C181.86,491.62 182.09,491.90 182.42,492.26" fill="none" stroke="rgb(255, 255, 255)" stroke-width="20.00" stroke-opacity="1.00" stroke-linejoin="round"/>
<path d="M228.57,482.30 C229.17,482.34 229.67,482.22 230.07,481.93 C231.45,480.96 232.97,478.87 232.61,478.74 C232.61,478.74 224.38,485.99 224.38,485.99 C225.53,489.49 227.40,491.94 229.99,493.35" fill="none" stroke="rgb(255, 255, 255)" stroke-width="20.00" stroke-opacity="1.00" stroke-linejoin="round"/>
<path d="M136.61,343.20 C136.61,343.20 133.60,338.73 133.60,338.73 C134.84,337.21 135.50,336.14 135.59,335.52 C135.68,334.90 135.31,333.87 134.48,332.41" fill="none" stroke="rgb(255, 255, 255)" stroke-width="20.00" stroke-opacity="1.00" stroke-linejoin="round"/>
<path d="M133.63,337.80 C133.63,337.80 135.23,340.54 135.23,340.54 C135.23,340.54 135.85,338.73 135.85,338.73 C135.85,338.73 131.36,337.14 131.36,337.14" fill="none" stroke="rgb(255, 255, 255)" stroke-width="20.00" stroke-opacity="1.00" stroke-linejoin="round"/>
<path d="M126.90,397.91 C127.11,397.51 127.20,397.13 127.18,396.79 C127.14,396.25 126.19,392.40 125.84,391.00" fill="none" stroke="rgb(255, 255, 255)" stroke-width="80.00" stroke-opacity="1.00" stroke-linejoin="round"/>
<path d="M118.91,408.22 C117.55,407.32 116.70,406.69 116.36,406.34 C116.01,405.98 115.69,405.39 115.38,404.57" fill="none" stroke="rgb(255, 255, 255)" stroke-width="80.00" stroke-opacity="1.00" stroke-linejoin="round"/>
<path d="M129.88,401.48 C129.36,401.09 128.99,400.78 128.76,400.57 C128.52,400.36 128.11,399.94 127.51,399.31" fill="none" stroke="rgb(255, 255, 255)" stroke-width="80.00" stroke-opacity="1.00" stroke-linejoin="round"/>
<path d="M135.46,391.36 C134.61,390.16 133.89,389.44 133.31,389.19 C132.72,388.94 131.44,388.83 129.47,388.85" fill="none" stroke="rgb(255, 255, 255)" stroke-width="80.00" stroke-opacity="1.00" stroke-linejoin="round"/>
<path d="M133.44,383.26 C132.39,383.54 131.67,383.79 131.26,384.02 C130.85,384.25 130.18,384.79 129.26,385.62" fill="none" stroke="rgb(255, 255, 255)" stroke-width="80.00" stroke-opacity="1.00" stroke-linejoin="round"/>
<path d="M132.19,390.78 C131.87,391.67 131.00,394.12 130.93,394.80 C130.88,395.25 130.89,396.17 130.95,397.55" fill="none" stroke="rgb(255, 255, 255)" stroke-width="80.00" stroke-opacity="1.00" stroke-linejoin="round"/>
<path d="M128.43,389.34 C126.53,390.29 123.86,392.15 122.77,393.54 C121.68,394.95 120.97,402.25 121.77,404.32 C122.45,405.94 126.72,410.01 128.90,410.55 C130.18,410.83 131.80,410.55 133.02,409.90 C133.99,409.32 135.95,407.08 136.62,405.71 C137.34,404.20 137.02,402.33 136.13,400.63 C133.55,400.35 131.94,400.33 131.17,400.84 C125.77,404.50 125.33,410.53 125.75,412.54 C125.75,412.54 129.11,411.66 129.11,411.66" fill="none" stroke="rgb(255, 255, 255)" stroke-width="80.00" stroke-opacity="1.00" stroke-linejoin="round"/>
<path d="M147.09,349.55 C147.09,349.55 145.24,350.62 145.24,350.62" fill="none" stroke="rgb(255, 255, 255)" stroke-width="80.00" stroke-opacity="1.00" stroke-linejoin="round"/>
<path d="M149.31,350.04" fill="none" stroke="rgb(255, 255, 255)" stroke-width="80.00" stroke-opacity="1.00" stroke-linejoin="round"/>
<path d="M151.14,340.78 C151.14,340.78 149.08,340.76 149.08,340.76" fill="none" stroke="rgb(255, 255, 255)" stroke-width="80.00" stroke-opacity="1.00" stroke-linejoin="round"/>
<path d="M144.21,332.21 C143.78,333.08 142.38,335.98 142.11,336.72 C141.05,339.71 141.35,344.12 142.08,348.76 C143.47,349.10 145.57,349.24 146.42,348.63 C147.26,348.02 148.70,345.32 149.55,343.37" fill="none" stroke="rgb(255, 255, 255)" stroke-width="80.00" stroke-opacity="1.00" stroke-linejoin="round"/>
<path d="M151.61,339.55 C151.18,340.71 149.60,345.00 149.35,345.62 C149.15,346.11 148.89,346.67 148.57,347.32" fill="none" stroke="rgb(255, 255, 255)" stroke-width="80.00" stroke-opacity="1.00" stroke-linejoin="round"/>
<path d="M85.46,421.27 C86.48,416.06 86.17,414.41 85.01,412.31 C83.49,412.96 82.73,414.08 82.00,416.96 C81.60,418.48 81.34,419.30 81.21,419.40 C81.03,419.55 80.99,417.14 81.04,415.13" fill="none" stroke="rgb(255, 255, 255)" stroke-width="80.00" stroke-opacity="1.00" stroke-linejoin="round"/>
<path d="M158.06,430.86 C157.82,432.27 157.71,433.25 157.71,433.78 C157.79,437.26 159.60,441.20 160.94,443.15" fill="none" stroke="rgb(255, 255, 255)" stroke-width="80.00" stroke-opacity="1.00" stroke-linejoin="round"/>
<path d="M164.31,430.76 C163.92,432.40 163.68,435.16 163.93,436.90 C164.16,438.48 166.65,443.51 167.11,444.44 C169.27,442.24 171.48,436.30 172.17,431.80 C173.42,422.44 175.23,415.21 177.27,408.62 C178.32,413.07 178.75,416.33 178.46,419.90 C177.66,428.37 168.52,458.90 165.99,467.16 C169.63,460.72 176.95,444.51 177.65,442.96 C180.96,435.70 186.11,427.08 191.57,418.49 C186.66,424.15 179.04,432.86 176.34,435.90 C174.81,437.61 172.21,440.16 170.71,441.38 C170.25,441.75 169.71,442.10 169.08,442.43" fill="none" stroke="rgb(255, 255, 255)" stroke-width="80.00" stroke-opacity="1.00" stroke-linejoin="round"/>
<path d="M145.52,356.01 C144.61,356.51 139.30,359.56 134.66,364.22 C131.02,367.91 108.32,394.60 103.16,400.69 C105.02,395.97 107.60,392.02 110.91,388.85 C110.33,391.05 109.24,394.34 108.43,395.61 C107.72,396.69 104.07,399.92 103.10,400.18 C101.56,400.53 99.02,399.83 97.34,398.78 C93.70,396.40 90.46,392.75 88.14,389.02 C81.47,378.00 78.48,373.44 77.17,371.93 C76.32,374.69 76.03,376.17 76.12,377.90 C76.35,382.10 77.23,387.30 78.38,390.93 C79.52,394.42 83.31,401.90 85.30,404.71 C87.26,407.44 93.24,413.67 95.95,415.85 C98.56,417.90 104.30,420.46 109.07,422.19 C116.66,424.83 126.63,427.75 129.32,428.39 C124.62,428.75 120.91,428.67 117.27,427.60 C113.58,426.47 107.16,423.31 104.44,421.15 C102.62,419.69 96.98,413.79 95.82,411.19 C95.18,409.69 94.06,402.25 94.13,400.18 C94.34,395.40 98.13,382.64 99.47,378.25" fill="none" stroke="rgb(255, 255, 255)" stroke-width="80.00" stroke-opacity="1.00" stroke-linejoin="round"/>
<path d="M135.36,340.70 C135.01,341.77 132.94,347.94 130.38,352.25 C128.11,356.06 97.77,399.71 94.20,406.14 C90.22,413.37 84.41,422.80 83.43,423.70 C83.11,424.00 82.29,424.60 80.99,425.51" fill="none" stroke="rgb(255, 255, 255)" stroke-width="80.00" stroke-opacity="1.00" stroke-linejoin="round"/>
<path d="M125.55,382.50 C132.80,381.89 144.35,380.94 148.66,380.60 C152.46,380.34 157.38,380.00 158.50,379.92 C155.66,377.23 150.58,373.48 146.67,371.24 C143.17,369.28 136.31,366.90 132.70,366.09 C125.61,364.55 112.46,364.40 101.88,365.59 C96.60,366.15 96.07,366.10 95.55,365.75 C97.81,363.24 102.89,360.27 105.88,358.49 C114.59,353.49 123.82,349.34 130.70,347.64 C134.97,346.62 141.32,346.12 145.16,346.65 C148.60,347.16 153.57,349.12 154.45,350.12 C155.59,351.49 156.04,353.27 155.40,354.38 C154.06,356.55 149.87,360.34 147.74,361.77 C142.95,364.92 131.74,369.87 121.33,372.98 C117.45,374.11 112.37,375.59 111.17,375.94 C111.17,375.94 115.07,381.89 115.07,381.89" fill="none" stroke="rgb(255, 255, 255)" stroke-width="80.00" stroke-opacity="1.00" stroke-linejoin="round"/>
</g>
</svg>
