<?xml version="1.0" encoding="UTF-8" standalone="no"?>
<!DOCTYPE svg PUBLIC "-//W3C//DTD SVG 1.1//EN" "http://www.w3.org/Graphics/SVG/1.1/DTD/svg11.dtd">
<svg width="341.00" height="129.00" viewBox="0.00 0.00 341.00 129.00" xmlns="http://www.w3.org/2000/svg" xmlns:xlink="http://www.w3.org/1999/xlink">
<g stroke-linecap="round" transform="translate(-182.00, -252.00)" id="hasi">
<path d="M490.59,262.99 C490.37,262.90 490.16,262.84 489.95,262.81 C489.45,262.72 488.91,262.67 488.33,262.64 C488.10,262.63 487.81,262.64 487.47,262.67" fill="none" stroke="rgb(167, 90, 47)" stroke-width="6.00" stroke-opacity="1.00" stroke-linejoin="round"/>
<path d="M487.47,262.67 L199.35,358.37" fill="none" stroke="rgb(167, 90, 47)" stroke-width="6.00" stroke-opacity="1.00" stroke-linejoin="round"/>
<path d="M199.35,358.37 C199.35,358.37 198.26,358.82 198.26,358.82 C198.26,358.82 198.34,358.67 198.34,358.67" fill="none" stroke="rgb(167, 90, 47)" stroke-width="6.00" stroke-opacity="1.00" stroke-linejoin="round"/>
<path d="M200.54,369.58 C200.54,369.58 199.56,369.57 199.56,369.57 C199.56,369.57 199.68,369.34 199.68,369.34" fill="none" stroke="rgb(167, 90, 47)" stroke-width="6.00" stroke-opacity="1.00" stroke-linejoin="round"/>
<path d="M199.68,369.34 L513.30,286.84" fill="none" stroke="rgb(167, 90, 47)" stroke-width="6.00" stroke-opacity="1.00" stroke-linejoin="round"/>
<path d="M513.30,286.84 C513.10,286.96 512.64,287.15 512.31,287.27 C512.25,287.30 512.22,287.32 512.23,287.34" fill="none" stroke="rgb(167, 90, 47)" stroke-width="6.00" stroke-opacity="1.00" stroke-linejoin="round"/>
<path d="M196.66,370.63 C196.66,370.63 196.00,370.67 196.00,370.67" fill="none" stroke="rgb(120, 81, 59)" stroke-width="6.00" stroke-opacity="1.00" stroke-linejoin="round"/>
<path d="M298.99,345.28 C298.99,345.28 298.67,344.67 298.67,344.67" fill="none" stroke="rgb(120, 81, 59)" stroke-width="6.00" stroke-opacity="1.00" stroke-linejoin="round"/>
<path d="M298.67,344.67 L507.10,288.34" fill="none" stroke="rgb(120, 81, 59)" stroke-width="6.00" stroke-opacity="1.00" stroke-linejoin="round"/>
<path d="M507.10,288.34 C507.10,288.34 506.67,288.00 506.67,288.00" fill="none" stroke="rgb(120, 81, 59)" stroke-width="6.00" stroke-opacity="1.00" stroke-linejoin="round"/>
<path d="M289.88,328.51 C289.88,328.51 288.67,328.00 288.67,328.00" fill="none" stroke="rgb(120, 81, 59)" stroke-width="6.00" stroke-opacity="1.00" stroke-linejoin="round"/>
<path d="M288.67,328.00 L477.89,264.80" fill="none" stroke="rgb(120, 81, 59)" stroke-width="6.00" stroke-opacity="1.00" stroke-linejoin="round"/>
<path d="M477.89,264.80 C477.89,264.80 477.33,264.67 477.33,264.67" fill="none" stroke="rgb(120, 81, 59)" stroke-width="6.00" stroke-opacity="1.00" stroke-linejoin="round"/>
<path d="M207.86,367.32 C207.86,367.32 207.45,368.45 207.45,368.45 C207.14,368.40 197.58,360.34 196.66,359.17 C195.80,358.02 196.98,355.82 200.51,351.58 C208.27,342.35 209.79,340.72 211.05,340.59 C212.04,340.55 219.76,344.71 220.27,345.08 C221.17,345.78 222.51,347.62 222.75,348.68 C223.06,350.37 222.63,353.35 221.71,354.89 C220.23,357.27 213.22,363.04 211.80,363.91 C209.90,365.06 206.82,365.58 205.52,365.74 C205.52,365.74 202.00,361.33 202.00,361.33" fill="none" stroke="rgb(246, 236, 207)" stroke-width="6.00" stroke-opacity="1.00" stroke-linejoin="round"/>
<path d="M197.78,345.51 C197.89,347.11 197.99,348.21 198.08,348.80 C198.39,350.90 200.41,358.32 201.22,360.76 C201.22,360.76 201.41,351.38 201.41,351.38 C201.41,351.38 202.60,358.88 202.60,358.88 C202.60,358.88 203.65,353.44 203.65,353.44 C203.49,353.22 203.09,359.77 203.18,360.38 C203.20,360.51 203.26,360.76 203.35,361.13 C204.79,360.38 206.25,354.85 206.68,353.19 C206.68,353.19 205.63,362.21 205.63,362.21 C205.63,362.21 207.75,346.89 207.75,346.89 C206.44,348.85 207.07,360.43 207.60,361.33 C208.89,361.45 210.24,359.09 211.15,356.59 C211.34,356.06 211.63,355.19 212.00,354.00" fill="none" stroke="rgb(246, 236, 207)" stroke-width="6.00" stroke-opacity="1.00" stroke-linejoin="round"/>
<path d="M215.63,347.46 C215.02,347.01 214.60,346.75 214.36,346.67 C212.70,346.19 208.63,349.52 207.19,351.97 C206.18,353.76 204.33,358.59 204.30,361.48 C204.29,363.21 205.15,364.77 206.29,365.81 C208.03,365.85 209.11,365.62 210.11,364.85 C212.02,363.34 215.51,358.94 216.63,356.37 C217.49,354.34 218.65,348.37 218.01,345.60 C217.58,343.88 215.44,342.01 213.93,342.02 C212.49,342.09 209.48,343.86 208.24,345.28 C207.16,346.58 205.88,349.50 205.65,351.06 C205.46,352.60 205.99,355.19 206.72,356.35 C207.48,357.48 209.37,358.56 210.58,358.56 C211.85,358.51 213.99,357.48 214.90,356.50 C215.71,355.57 216.20,353.39 215.80,352.34 C215.26,351.13 213.13,350.20 211.57,350.56 C210.17,350.92 207.54,352.71 206.69,353.80 C205.15,355.91 205.97,357.88 206.87,358.80 C208.38,359.11 210.30,358.61 211.94,357.17 C215.06,354.36 215.58,350.95 215.40,348.98 C215.40,348.98 213.72,347.95 213.72,347.95 C211.55,349.12 210.47,349.88 209.58,350.97 C208.73,352.03 207.37,354.52 206.91,355.96 C206.49,357.35 206.90,359.98 207.64,360.73 C208.65,361.66 211.05,361.11 212.71,359.68 C213.93,358.58 216.99,352.91 217.25,351.30 C217.59,349.08 216.96,347.40 215.61,346.37 C213.24,347.07 211.89,347.70 210.90,348.73 C209.30,350.42 206.42,355.33 205.89,358.57 C205.69,359.87 206.17,361.00 206.89,361.81 C208.45,362.00 210.48,361.42 212.16,360.02 C215.46,357.23 216.32,353.21 215.80,352.38 C214.65,351.99 213.10,352.43 211.57,353.86 C210.39,354.99 208.80,357.52 208.52,358.69 C208.23,359.97 208.57,361.17 209.25,362.02 C210.40,362.22 212.10,361.62 213.47,360.33 C214.60,359.24 217.39,353.48 217.71,351.62 C218.12,349.18 217.81,346.83 216.95,344.83 C215.44,344.07 213.67,344.37 211.99,345.91 C210.81,347.00 208.51,351.89 208.32,353.58 C208.17,355.08 208.36,357.77 208.73,358.64 C209.09,359.42 210.45,360.35 211.21,360.25 C212.14,360.09 214.05,358.45 214.80,357.17 C216.07,354.91 215.94,350.19 214.86,349.11 C213.54,347.89 210.73,347.87 208.56,348.74 C210.02,348.08 213.00,346.69 213.81,346.50 C215.78,346.08 219.31,346.75 220.23,347.91 C221.05,349.01 221.48,351.82 221.12,352.88 C220.56,354.27 219.35,356.10 217.80,357.92 C216.23,359.74 214.75,360.82 212.76,361.77 C212.63,360.42 213.17,359.16 214.87,357.11 C215.59,356.24 216.67,354.94 217.43,354.02 C212.83,357.09 210.71,358.67 209.39,358.65 C205.63,358.55 199.89,359.61 198.95,358.26 C198.14,357.02 197.78,354.22 198.10,352.58 C199.08,348.21 200.86,344.42 202.65,343.95 C206.20,343.35 210.46,350.18 210.41,350.47 C208.76,349.97 203.16,347.49 201.90,347.83 C200.10,348.35 199.39,349.48 198.32,353.21 C198.22,353.57 198.11,353.66 197.97,353.48 C197.97,353.48 197.20,352.42 197.20,352.42 C196.99,355.14 197.42,357.39 198.68,359.68 C199.61,361.39 199.80,362.06 199.44,362.58 C199.34,362.71 197.80,363.83 196.19,365.05 C196.19,365.05 196.70,366.51 196.70,366.51 C197.72,366.84 200.31,367.72 200.97,367.68 C202.32,367.56 204.12,366.37 204.28,365.50 C204.52,363.93 203.54,361.65 203.54,361.66 C203.54,361.66 207.16,366.06 207.16,366.06 C207.16,366.06 207.41,363.78 207.41,363.78 C207.41,363.78 206.61,364.93 206.61,364.93 C205.98,363.05 204.73,361.53 203.28,361.41 C201.16,361.23 199.24,363.04 199.08,363.54 C201.38,364.56 205.42,362.75 207.64,361.11 C208.43,360.51 209.21,359.92 210.00,359.33" fill="none" stroke="rgb(246, 236, 207)" stroke-width="6.00" stroke-opacity="1.00" stroke-linejoin="round"/>
<path d="M224.37,352.88 C224.58,353.98 224.74,354.77 224.87,355.25 C225.10,356.16 226.24,359.68 226.36,360.15 C226.46,360.64 221.29,365.02 219.93,365.29 C218.65,365.51 214.48,360.42 214.37,359.74 C214.32,359.11 215.15,357.82 215.96,357.29 C216.59,356.92 218.43,357.11 219.19,357.66 C219.92,358.20 221.61,359.84 222.28,359.99 C221.97,358.89 221.56,358.38 220.94,358.59 C220.38,358.78 220.00,359.33 219.81,360.03 C220.13,360.73 220.72,361.21 221.55,361.29 C222.25,361.36 222.99,360.77 223.94,359.59 C223.94,359.59 223.26,358.06 223.26,358.06 C223.26,358.06 221.16,358.02 221.16,358.02 C221.16,358.02 219.86,359.48 219.86,359.48 C219.86,359.48 221.89,363.30 221.89,363.30 C223.06,360.52 223.66,357.89 223.23,356.23 C222.81,354.70 220.87,353.51 219.51,353.81 C217.34,354.35 217.18,357.67 217.48,357.85 C218.49,355.53 216.91,349.95 216.39,350.42 C216.44,351.76 216.89,353.39 217.56,354.20 C217.99,354.71 218.80,354.67 219.52,354.40 C219.52,354.40 219.77,350.64 219.77,350.64 C219.04,350.14 218.22,350.06 217.30,350.57 C216.46,351.04 215.72,352.09 214.68,354.03 C213.89,355.44 211.85,356.24 210.20,355.59 C209.39,355.25 205.13,351.64 204.28,351.04 C203.01,350.14 201.69,349.83 200.85,349.98 C199.89,350.80 201.44,357.97 201.48,358.58 C201.50,358.82 201.44,359.16 201.33,359.60 C199.07,356.41 196.75,352.72 196.19,352.15 C195.48,351.45 194.42,351.02 193.52,350.93 C193.52,350.93 192.71,351.90 192.71,351.90 C192.71,351.90 194.38,355.47 194.38,355.47 C194.38,355.47 195.72,355.32 195.72,355.32 C195.72,355.32 194.81,350.88 194.81,350.88 C194.81,350.88 195.75,350.02 195.75,350.02 C196.66,350.55 196.84,353.38 196.86,354.51 C196.93,356.31 197.92,358.29 198.99,358.88 C201.18,359.96 207.86,357.36 209.25,356.79 C209.25,356.79 209.57,359.98 209.57,359.98 C209.57,359.98 211.33,360.67 211.33,360.67" fill="none" stroke="rgb(246, 236, 207)" stroke-width="6.00" stroke-opacity="1.00" stroke-linejoin="round"/>
<path d="M222.80,347.84 C222.37,346.93 222.12,346.22 222.05,345.70 C221.82,343.75 222.67,340.80 223.90,338.54 C224.79,338.87 226.05,340.35 226.91,342.31 C227.47,343.60 227.05,345.50 225.91,348.50 C225.91,348.50 224.78,348.79 224.78,348.79 C224.78,348.79 223.17,344.45 223.17,344.45 C223.17,344.45 223.57,347.77 223.57,347.77 C223.57,347.77 224.56,345.61 224.56,345.61 C224.56,345.61 224.42,346.88 224.42,346.88 C224.42,346.88 225.89,343.00 225.89,343.00 C225.89,343.00 224.33,345.51 224.33,345.51 C225.11,345.45 225.77,344.53 225.86,343.16 C225.90,342.53 225.43,341.94 224.83,341.47 C220.82,342.38 221.96,348.99 222.74,350.25 C222.74,350.25 223.75,350.30 223.75,350.30 C224.57,349.72 225.53,348.07 225.66,346.53 C225.80,345.03 224.91,343.76 223.68,343.10 C223.68,343.10 220.67,346.67 220.67,346.67" fill="none" stroke="rgb(246, 236, 207)" stroke-width="6.00" stroke-opacity="1.00" stroke-linejoin="round"/>
<path d="M214.58,356.34 C214.77,356.95 214.99,357.41 215.23,357.73 C215.88,358.59 218.01,360.84 219.31,362.86 C219.31,362.86 216.98,361.53 216.98,361.53 C216.98,361.53 217.10,364.84 217.10,364.84 C219.03,365.29 220.55,364.96 221.31,363.67 C221.70,362.98 221.89,361.37 221.68,360.96 C220.96,359.82 216.48,358.47 213.47,358.92 C212.09,359.15 210.08,360.73 209.29,362.04 C209.01,362.55 207.38,369.67 207.18,369.56 C206.71,368.04 206.57,366.01 207.04,364.45 C207.47,362.99 208.46,361.66 209.12,361.29 C209.12,361.29 208.79,364.82 208.79,364.82 C208.79,364.82 210.45,364.94 210.45,364.94 C210.45,364.94 209.89,366.34 209.89,366.34 C209.89,366.34 212.84,363.97 212.84,363.97 C212.84,363.97 212.29,363.06 212.29,363.06 C212.29,363.06 210.18,363.00 210.18,363.00 C210.87,361.79 211.91,358.83 211.99,357.34 C212.11,354.87 209.38,354.81 208.30,355.30 C208.30,355.30 207.74,356.59 207.74,356.59 C209.10,357.12 210.02,357.16 210.58,356.35 C211.52,354.98 211.80,353.35 211.47,351.85 C211.47,351.85 209.93,350.86 209.93,350.86 C208.05,352.00 208.38,353.57 209.09,354.78 C209.62,354.12 209.25,353.14 207.70,351.57 C205.63,349.47 202.63,344.08 201.36,343.10 C201.36,343.10 200.10,343.50 200.10,343.50 C200.06,345.66 200.36,347.73 201.14,348.91 C201.78,349.87 203.53,351.50 204.45,352.20 C204.19,351.75 199.12,347.54 199.49,346.23 C199.57,346.00 199.85,345.40 200.33,344.42 C201.59,343.86 202.90,343.91 203.96,344.78 C205.37,345.98 204.82,350.25 204.67,351.33" fill="none" stroke="rgb(246, 236, 207)" stroke-width="6.00" stroke-opacity="1.00" stroke-linejoin="round"/>
<path d="M205.62,356.86 C204.01,356.44 203.04,356.18 202.71,356.08 C201.90,355.82 200.47,354.81 197.82,352.83 C197.82,352.83 198.49,356.77 198.49,356.77 C198.49,356.77 193.95,351.02 193.95,351.02 C193.97,352.43 194.94,354.16 196.93,356.07 C197.64,356.75 199.92,358.51 200.42,358.96 C201.30,359.78 201.66,360.95 201.28,362.13 C200.78,363.47 199.97,365.72 200.12,366.23 C200.34,366.95 201.14,367.56 201.87,367.75 C201.87,367.75 200.10,368.21 200.10,368.21 C200.10,368.21 201.88,369.50 201.88,369.50 C201.88,369.50 203.33,367.33 203.33,367.33" fill="none" stroke="rgb(246, 236, 207)" stroke-width="6.00" stroke-opacity="1.00" stroke-linejoin="round"/>
</g>
</svg>
